# xmcd CD database file
#
# Track frame offsets:
#	150
#	7050
#	32370
#	59482
#	100387
#	118460
#	142460
#	161602
#	176515
#
# Disc length: 2675 seconds
#
# Revision: 2
# Processed by: cddbd v1.4PL0 Copyright (c) Steve Scherf et al.
# Submitted via: CDex 1.50beta8
#
DISCID=830a7109
DTITLE=Mike Bloomfield and Al Kooper - The Live Adventures Of Mike Bloomfield and Al Kooper  Disc 1
DYEAR=1968
DGENRE=Rock
TTITLE0=Openning speach
TTITLE1=The 59th Street Bridge Song (Feelin' Groovy)
TTITLE2=I Wonder Who
TTITLE3=Her Holy Modal Highness
TTITLE4=The Weight
TTITLE5=Marry Ann
TTITLE6=Together 'Til the End of Time
TTITLE7=That's All Right
TTITLE8=Green Onion
EXTD=YEAR: 1968
EXTT0=
EXTT1=
EXTT2=
EXTT3=
EXTT4=
EXTT5=
EXTT6=
EXTT7=
EXTT8=
PLAYORDER=
